{"title":"The.Beauty.Inside.2015.BRRip.480p.x264.AAC-VYTO [P2PDL]","uid":13100178,"size":480226386,"categoryP":"video","categoryS":"movies","magnet":"?xt=urn:btih:7f5c9227d7b0f0e01469122b5e05831b14e88cd0&amp;dn=The.Beauty.Inside.2015.BRRip.480p.x264.AAC-VYTO+%5BP2PDL%5D&amp;tr=udp%3A%2F%2Ftracker.leechers-paradise.org%3A6969&amp;tr=udp%3A%2F%2Fzer0day.ch%3A1337&amp;tr=udp%3A%2F%2Fopen.demonii.com%3A1337&amp;tr=udp%3A%2F%2Ftracker.coppersurfer.tk%3A6969&amp;tr=udp%3A%2F%2Fexodus.desync.com%3A6969","seeders":0,"leechers":1,"uploader":"VYTOP2PDL","files":7,"time":1451219358,"description":"____    ____ ____    ____ .___________.  ______   \r\n     /   /      /   / |           | /  __    \r\n    /   /      /   /  `---|  |----`|  |  |  | \r\n        /     _    _/       |  |     |  |  |  | \r\n       /        |  |         |  |     |  `--'  | \r\n    __/         |__|         |__|      ______/  \r\n                                                  \r\nPresenting Small Encodes with quality for years!\r\n                                                                                                   \r\n                                                                                                   \r\n\r\nThe.Beauty.Inside.2015.BRRip.480p.x264.AAC-VYTO\r\n\r\n\r\nGenre: Drama, Romance  \nhttp://www.imdb.com/title/tt4273886/\r\n\r\n\r\nFormat                                   : MPEG-4\r\nFile size                                : 452 MiB\r\nDuration                                 : 2h 7mn\r\nOverall bit rate                         : 497 Kbps\r\n\r\nVideo\r\nFormat                                   : AVC\r\nBit rate                                 : 462 Kbps\r\nWidth                                    : 720 pixels\r\nHeight                                   : 304 pixels\r\nDisplay aspect ratio                     : 2.35:1\r\nFrame rate mode                          : Constant\r\nFrame rate                               : 23.976 (24000/1001) fps\r\nBit depth                                : 8 bits\r\nStream size                              : 420 MiB (93%)\r\nWriting library                          : x264\r\n\r\nAudio\r\nFormat                                   : AAC\r\nBit rate mode                            : Variable\r\nBit rate                                 : 32.0 Kbps\r\nChannel(s)                               : 2 channels\r\nChannel positions                        : Front: L R \r\nSampling rate                            : 48.0 KHz \r\nFrame rate                               : 23.438 fps\r\nStream size                              : 29.0 MiB (6%)\r\nLanguage                                 : Korean\r\n\r\nSubtitle                                 : Yes (English)\r\n\r\nScreen Shots: (Click to view)\r\n \nhttp://ititli.com/3N \nhttp://ititli.com/3P \nhttp://ititli.com/3f \nhttp://ititli.com/3u \nhttp://ititli.com/3v \nhttp://ititli.com/3R \nhttp://ititli.com/3y \nhttp://ititli.com/33 \nhttp://ititli.com/3E \nhttp://ititli.com/3Q \nhttp://ititli.com/3S \nhttp://ititli.com/3Z\r\n\r\n----------------------------------------------------------------------------------------------------\r\n\r\n\r\nEncoder Notes: Looking For Early Access To Anything You Can Provide WEBDL, DVDScr, DVDR, BluRay,\r\nDirect Audio, Music Releases and Seedboxes. If You Got anything to offer please contact us.\r\n\r\nSupport us by donating BC - 1FgwdzPsd1y25Gea8wP1qni35uGCtmkRCD\r\n\r\nSend some love!\r\nFind us and join us!","torrent":{"xt":"urn:btih:7f5c9227d7b0f0e01469122b5e05831b14e88cd0","amp;dn":"The.Beauty.Inside.2015.BRRip.480p.x264.AAC-VYTO+%5BP2PDL%5D","amp;tr":["udp%3A%2F%2Ftracker.leechers-paradise.org%3A6969","udp%3A%2F%2Fzer0day.ch%3A1337","udp%3A%2F%2Fopen.demonii.com%3A1337","udp%3A%2F%2Ftracker.coppersurfer.tk%3A6969","udp%3A%2F%2Fexodus.desync.com%3A6969"],"infoHash":"7f5c9227d7b0f0e01469122b5e05831b14e88cd0","infoHashBuffer":{"type":"Buffer","data":[127,92,146,39,215,176,240,224,20,105,18,43,94,5,131,27,20,232,140,208]},"announce":[],"urlList":[]}}